<?xml version="1.0" standalone="no"?>
<!DOCTYPE svg PUBLIC "-//W3C//DTD SVG 20010904//EN"
 "http://www.w3.org/TR/2001/REC-SVG-20010904/DTD/svg10.dtd">
<svg version="1.0" xmlns="http://www.w3.org/2000/svg"
 width="700.000000pt" height="700.000000pt" viewBox="0 0 700.000000 700.000000"
 preserveAspectRatio="xMidYMid meet">
<metadata>
Created by potrace 1.14, written by Peter Selinger 2001-2017
</metadata>
<g transform="translate(0.000000,700.000000) scale(0.100000,-0.100000)"
fill="#000000" stroke="none">
<path d="M3760 6693 c-97 -14 -355 -90 -385 -113 -5 -4 -21 -11 -35 -15 -14
-4 -36 -16 -50 -25 -14 -10 -29 -18 -33 -18 -25 -2 -234 -131 -347 -215 -232
-173 -467 -428 -620 -670 -196 -312 -332 -670 -394 -1037 -21 -125 -24 -146
-32 -250 -25 -316 -1 -485 76 -525 99 -51 172 29 205 225 45 268 121 510 230
735 64 130 162 292 222 365 181 224 354 390 563 541 234 169 451 282 751 389
194 69 301 144 348 244 72 152 -13 293 -213 353 -47 14 -228 24 -286 16z"/>
<path d="M4939 6016 c-2 -2 -35 -6 -74 -10 -620 -55 -1297 -383 -1761 -853
-103 -104 -128 -147 -129 -216 0 -42 4 -52 30 -74 26 -21 38 -24 87 -20 52 3
68 10 170 79 129 86 224 148 253 164 196 108 363 181 535 234 72 22 142 42
155 44 14 3 60 11 102 20 193 37 415 48 668 33 109 -7 135 -10 218 -23 23 -3
53 -8 67 -9 165 -20 482 -116 695 -210 200 -89 259 -106 355 -106 102 1 156
20 214 78 170 170 1 471 -369 656 -157 78 -392 151 -590 182 -55 9 -113 19
-130 22 -37 6 -490 15 -496 9z"/>
<path d="M1514 5855 c-195 -54 -373 -259 -497 -570 -36 -90 -83 -241 -93 -299
-2 -17 -9 -47 -14 -66 -45 -172 -59 -600 -26 -790 2 -14 10 -59 16 -100 57
-355 220 -751 447 -1086 153 -226 422 -518 532 -578 85 -46 157 -32 186 37 25
60 7 105 -107 269 -137 195 -223 347 -316 558 -26 59 -76 210 -96 285 -70 276
-88 578 -52 900 11 97 19 151 22 156 2 4 6 24 10 45 25 165 105 405 216 654
98 219 113 279 95 388 -14 83 -77 167 -145 193 -44 17 -125 19 -178 4z"/>
<path d="M2605 4542 c-155 -75 -244 -255 -245 -495 0 -154 36 -281 108 -375
38 -50 131 -111 290 -192 163 -82 192 -111 213 -207 46 -226 -144 -420 -353
-359 -64 18 -133 75 -183 148 l-33 50 -41 -58 c-23 -31 -41 -64 -41 -72 0 -36
78 -161 140 -223 88 -89 148 -112 275 -107 112 4 183 34 255 108 61 63 125
189 146 290 20 93 14 320 -10 393 -50 155 -127 229 -365 351 -156 80 -176 94
-201 133 -34 54 -44 111 -30 183 22 118 91 198 190 219 101 22 199 -22 262
-119 18 -27 35 -50 38 -49 8 0 80 107 80 120 0 23 -65 132 -106 178 -23 26
-66 60 -96 76 -45 25 -66 30 -143 33 -83 3 -95 1 -150 -26z"/>
<path d="M3200 4528 c0 -2 88 -260 195 -572 l195 -568 0 -364 0 -364 80 0 80
0 0 358 0 357 200 560 c109 307 197 562 194 565 -3 3 -47 5 -97 5 l-91 0 -140
-393 c-76 -216 -142 -389 -146 -385 -4 4 -67 185 -141 400 l-134 393 -60 0
c-33 0 -77 3 -97 6 -21 4 -38 5 -38 2z"/>
<path d="M4218 3579 c-3 -508 -3 -926 -1 -929 10 -11 529 -17 572 -7 87 20
170 135 213 296 28 102 30 323 4 426 -20 82 -56 165 -93 213 l-25 34 30 66
c46 99 64 189 63 323 0 176 -41 315 -121 412 -61 72 -76 75 -372 83 l-265 7
-5 -924z m494 716 c15 -11 40 -45 57 -75 80 -150 61 -392 -40 -493 l-37 -38
-154 3 -153 3 -3 313 -2 314 152 -4 c134 -3 156 -5 180 -23z m21 -802 c34 -17
80 -86 104 -157 25 -72 25 -280 0 -352 -27 -79 -69 -138 -112 -158 -34 -16
-55 -17 -191 -11 l-154 7 0 350 0 350 163 -7 c108 -5 171 -12 190 -22z"/>
<path d="M5100 3556 c0 -733 3 -927 13 -931 6 -2 173 -6 370 -10 l358 -6 -3
88 -3 88 -245 6 c-135 3 -264 7 -287 8 l-43 1 0 332 0 331 290 -7 291 -7 -3
88 -3 88 -210 6 c-115 3 -245 7 -287 8 l-78 1 0 331 0 332 290 -8 290 -7 0 85
c0 47 -3 88 -7 90 -5 3 -171 8 -370 12 l-363 7 0 -926z"/>
<path d="M5937 4385 c-4 -43 -7 -460 -7 -926 l0 -848 43 -6 c23 -4 60 -5 82
-3 l40 3 3 379 2 378 79 -3 c71 -4 83 -7 118 -35 21 -17 50 -51 66 -75 15 -25
74 -182 131 -349 l104 -305 96 -3 c53 -1 96 -1 96 2 0 15 -232 680 -251 718
-12 26 -21 49 -18 51 95 67 142 133 182 253 51 156 56 384 10 536 -37 128
-115 243 -186 277 -39 19 -68 21 -313 27 l-271 7 -6 -78z m510 -131 c40 -29
86 -101 109 -170 15 -46 19 -87 19 -184 0 -141 -21 -224 -75 -299 -47 -64 -69
-71 -229 -71 -77 0 -146 3 -155 6 -14 5 -16 48 -16 376 l0 370 159 -4 c143 -3
163 -5 188 -24z"/>
<path d="M367 3606 c-87 -31 -149 -115 -185 -246 -12 -44 -9 -251 5 -315 87
-412 418 -887 843 -1211 345 -264 815 -464 1265 -539 184 -31 224 -34 440 -40
197 -4 279 5 336 37 46 26 70 70 59 107 -15 51 -22 61 -56 81 -43 27 -74 36
-214 60 -201 35 -294 58 -462 114 -280 93 -489 204 -703 371 -398 311 -681
697 -880 1200 -93 234 -149 313 -260 366 -67 32 -126 37 -188 15z"/>
<path d="M3289 2243 c-4 -15 -3 -538 0 -649 l1 -32 76 2 75 1 0 315 c0 173 -1
330 -1 348 l0 32 -74 0 c-62 0 -74 -3 -77 -17z"/>
<path d="M3588 2248 c-2 -7 -4 -164 -3 -348 l0 -335 78 -1 77 -2 0 254 c0 140
2 254 4 254 3 0 51 -46 109 -102 57 -57 173 -171 258 -254 l154 -151 75 1 75
1 1 348 1 347 -76 0 -76 0 0 -255 c0 -140 -1 -255 -3 -255 -2 0 -69 65 -150
144 -81 80 -198 194 -261 255 l-115 111 -72 0 c-49 0 -73 -4 -76 -12z"/>
<path d="M4564 1915 c0 -232 3 -346 10 -348 6 -2 40 -4 76 -3 l65 1 0 147 c1
82 4 149 9 149 4 1 46 -23 94 -52 47 -30 101 -63 119 -74 18 -11 88 -54 155
-96 l123 -77 108 0 108 0 -35 24 c-20 14 -127 81 -238 150 -111 70 -220 137
-241 151 l-38 24 275 172 275 172 -111 3 c-83 2 -115 -1 -127 -11 -9 -8 -23
-17 -31 -20 -8 -4 -64 -38 -123 -77 -60 -38 -113 -70 -118 -70 -5 0 -9 -4 -9
-10 0 -5 -5 -10 -10 -10 -6 0 -48 -25 -95 -55 -46 -30 -86 -51 -87 -47 -2 4
-3 73 -3 155 l1 147 -76 0 -76 0 0 -345z"/>
<path d="M4475 1458 c-16 -6 -100 -56 -185 -113 -217 -142 -360 -219 -546
-293 -90 -36 -246 -88 -291 -96 -10 -2 -36 -9 -58 -15 -55 -14 -213 -39 -310
-48 -147 -13 -493 -7 -606 12 -13 2 -46 7 -74 10 -27 4 -59 9 -70 10 -121 17
-474 118 -580 165 -289 130 -327 142 -437 146 -113 4 -167 -14 -228 -75 -53
-53 -70 -99 -66 -180 8 -150 153 -322 373 -444 190 -105 463 -192 698 -223 22
-3 51 -7 64 -9 187 -30 537 -21 776 21 152 26 532 136 570 164 6 4 21 11 35
15 38 12 206 93 295 143 127 71 357 222 385 252 3 3 34 28 70 55 36 27 120
103 187 170 143 141 178 198 160 266 -5 22 -19 47 -31 54 -30 20 -96 26 -131
13z"/>
</g>
</svg>
