<?xml version="1.0" standalone="no"?>
<!DOCTYPE svg PUBLIC "-//W3C//DTD SVG 20010904//EN"
 "http://www.w3.org/TR/2001/REC-SVG-20010904/DTD/svg10.dtd">
<svg version="1.0" xmlns="http://www.w3.org/2000/svg"
 width="700.000000pt" height="700.000000pt" viewBox="0 0 700.000000 700.000000"
 preserveAspectRatio="xMidYMid meet">
<metadata>
Created by potrace 1.14, written by Peter Selinger 2001-2017
</metadata>
<g transform="translate(0.000000,700.000000) scale(0.100000,-0.100000)"
fill="#000000" stroke="none">
<path d="M3555 6416 c-241 -64 -478 -208 -680 -412 -297 -299 -472 -705 -492
-1140 -7 -155 0 -215 31 -251 41 -47 113 -28 138 36 5 13 20 78 34 144 68 321
184 545 392 760 218 224 452 373 747 477 66 23 134 49 150 58 54 27 105 73
125 113 42 81 14 153 -80 204 -50 27 -65 30 -165 32 -91 3 -126 -1 -200 -21z"/>
<path d="M4422 5999 c-429 -41 -877 -244 -1184 -537 -105 -100 -129 -151 -88
-192 31 -31 86 -26 151 13 30 19 86 53 124 77 168 104 378 189 570 230 126 28
445 39 593 21 197 -24 417 -86 629 -175 159 -67 289 -51 342 44 25 45 26 71 5
133 -85 249 -636 435 -1142 386z"/>
<path d="M2124 5892 c-89 -31 -183 -120 -251 -238 -180 -311 -212 -757 -82
-1149 104 -313 351 -667 583 -837 90 -65 187 -8 141 83 -10 19 -41 66 -69 104
-155 208 -260 433 -300 642 -23 122 -30 293 -17 423 22 218 70 383 173 603 74
159 84 224 46 297 -17 33 -35 51 -68 68 -53 26 -88 27 -156 4z"/>
<path d="M3339 4626 c-51 -18 -79 -40 -111 -88 -40 -59 -58 -129 -58 -223 0
-169 46 -240 210 -324 54 -28 109 -64 123 -81 65 -76 31 -216 -64 -265 -68
-36 -169 -5 -216 66 l-27 41 -28 -34 c-32 -39 -30 -52 20 -128 46 -68 103
-108 164 -116 105 -14 194 40 249 152 28 57 33 78 37 168 9 196 -37 272 -226
370 -130 68 -147 90 -140 179 13 159 195 200 276 62 12 -19 13 -19 37 10 32
38 31 51 -4 107 -35 55 -82 92 -136 107 -50 14 -61 13 -106 -3z"/>
<path d="M3670 4606 c0 -2 52 -156 115 -342 l115 -338 0 -223 0 -223 50 0 50
0 0 218 0 217 119 335 c81 230 115 337 107 342 -6 4 -32 8 -57 8 l-46 0 -85
-241 -85 -241 -68 198 c-38 110 -76 219 -84 244 l-17 45 -57 3 c-31 2 -57 1
-57 -2z"/>
<path d="M4278 4165 c-2 -234 -3 -485 -3 -557 l0 -133 150 -7 c187 -9 206 -6
250 39 61 62 79 128 80 279 l0 131 -36 71 -37 71 26 63 c48 118 31 312 -37
407 -37 52 -73 61 -240 61 l-151 0 -2 -425z m300 290 c36 -30 57 -98 55 -177
-1 -76 -18 -122 -54 -153 -32 -26 -56 -29 -146 -19 l-53 7 0 183 0 184 84 0
c75 0 88 -3 114 -25z m14 -476 c9 -5 27 -30 40 -56 19 -40 23 -64 23 -143 0
-83 -3 -101 -25 -140 -35 -62 -58 -71 -163 -63 l-87 6 0 209 0 209 98 -7 c53
-4 104 -10 114 -15z"/>
<path d="M4800 4022 l0 -559 107 -6 c58 -4 157 -7 220 -7 l113 0 0 55 0 55
-147 0 c-82 0 -158 3 -170 6 -23 6 -23 8 -23 200 l0 194 176 0 175 0 -3 53 -3
52 -172 3 -173 2 0 202 0 201 175 -8 175 -7 0 55 0 54 -127 6 c-71 4 -172 7
-225 7 l-98 0 0 -558z"/>
<path d="M5300 4013 l0 -561 43 -4 c23 -3 45 -3 50 -1 4 2 7 105 7 229 l0 224
48 0 c85 -1 104 -29 188 -274 l61 -181 57 -5 c37 -4 56 -2 56 6 0 17 -128 390
-145 424 -15 30 -15 31 21 63 105 91 134 342 58 506 -50 111 -67 119 -278 127
l-166 7 0 -560z m311 426 c10 -5 30 -35 45 -66 38 -77 40 -200 4 -281 -33 -75
-46 -82 -162 -82 l-98 0 0 226 0 227 97 -7 c53 -4 105 -12 114 -17z"/>
<path d="M1351 4443 c-63 -31 -111 -136 -111 -243 0 -187 141 -463 346 -679
343 -361 876 -580 1409 -581 207 0 271 31 239 115 -9 22 -70 51 -124 59 -314
48 -591 148 -792 288 -279 194 -512 480 -629 773 -65 164 -110 230 -180 266
-46 23 -112 24 -158 2z"/>
<path d="M4147 3068 c-16 -6 -75 -39 -130 -75 -192 -122 -421 -219 -609 -257
-201 -41 -478 -45 -688 -11 -184 30 -309 69 -575 178 -36 15 -74 21 -136 21
-75 1 -90 -2 -121 -24 -48 -32 -68 -69 -68 -124 0 -64 32 -125 98 -188 258
-246 844 -338 1343 -212 285 71 576 217 802 402 96 79 184 173 193 206 10 43
-3 73 -37 85 -37 13 -35 13 -72 -1z"/>
<path d="M770 1485 l0 -595 195 0 195 0 0 595 0 595 -195 0 -195 0 0 -595z"/>
<path d="M1530 1485 l0 -595 195 0 195 0 2 439 3 438 670 -438 670 -439 193 0
192 0 0 595 0 595 -195 0 -195 0 0 -435 c0 -239 -2 -435 -5 -435 -3 0 -304
196 -670 435 l-666 435 -194 0 -195 0 0 -595z"/>
<path d="M4020 1485 l0 -595 195 0 195 0 0 266 c0 209 3 265 13 261 22 -9 312
-130 732 -307 226 -95 437 -183 470 -196 60 -24 65 -24 338 -22 l277 3 -393
164 c-331 139 -937 392 -1001 419 -14 6 160 83 684 303 l702 294 -279 3 -280
2 -259 -109 c-806 -338 -982 -411 -992 -411 -9 0 -12 67 -12 260 l0 260 -195
0 -195 0 0 -595z"/>
</g>
</svg>
