<?xml version="1.0" standalone="no"?>
<!DOCTYPE svg PUBLIC "-//W3C//DTD SVG 20010904//EN"
 "http://www.w3.org/TR/2001/REC-SVG-20010904/DTD/svg10.dtd">
<svg version="1.0" xmlns="http://www.w3.org/2000/svg"
 width="700.000000pt" height="700.000000pt" viewBox="0 0 700.000000 700.000000"
 preserveAspectRatio="xMidYMid meet">
<metadata>
Created by potrace 1.14, written by Peter Selinger 2001-2017
</metadata>
<g transform="translate(0.000000,700.000000) scale(0.100000,-0.100000)"
fill="#000000" stroke="none">
<path d="M3830 6175 c-137 -31 -271 -96 -411 -202 -354 -266 -569 -709 -573
-1178 -1 -149 14 -184 75 -185 47 0 61 26 90 177 54 281 170 503 363 696 172
171 338 273 614 378 241 91 225 309 -25 324 -40 3 -95 -1 -133 -10z"/>
<path d="M4515 5814 c-314 -32 -636 -166 -875 -365 -166 -138 -219 -218 -174
-263 29 -30 67 -18 180 55 258 168 450 234 714 246 269 12 454 -27 780 -163
83 -35 162 -37 212 -6 41 26 58 58 58 113 0 152 -225 304 -538 363 -83 16
-286 27 -357 20z"/>
<path d="M2624 5711 c-116 -53 -219 -211 -274 -418 -34 -128 -43 -226 -37
-391 8 -231 42 -360 152 -587 68 -140 144 -253 245 -366 118 -133 193 -175
234 -133 30 30 19 68 -56 181 -178 270 -248 485 -248 762 0 223 40 413 130
617 75 170 83 228 39 300 -34 56 -108 70 -185 35z"/>
<path d="M3612 4178 l3 -373 55 0 55 0 3 373 2 372 -60 0 -60 0 2 -372z"/>
<path d="M3830 4175 l0 -375 55 0 55 0 2 275 3 276 189 -276 189 -275 53 0 54
0 0 375 0 375 -55 0 -55 0 -2 -272 -3 -273 -185 270 -185 270 -58 3 -57 3 0
-376z"/>
<path d="M4540 4174 l0 -375 53 3 52 3 5 162 5 161 175 -163 175 -164 78 -1
c42 0 77 2 77 4 0 2 -88 86 -195 186 -108 100 -195 186 -193 191 2 4 53 54
113 110 61 57 147 138 193 181 l83 78 -80 0 -80 0 -173 -162 -173 -162 -3 162
-2 162 -55 0 -55 0 0 -376z"/>
<path d="M2013 4480 c-75 -46 -102 -180 -65 -327 43 -170 147 -337 312 -504
164 -165 314 -261 535 -344 217 -81 524 -124 665 -94 81 17 104 77 44 115 -13
9 -78 27 -143 40 -285 57 -465 141 -661 309 -185 158 -328 367 -424 616 -68
178 -166 249 -263 189z"/>
<path d="M4260 3313 c-7 -3 -55 -33 -105 -66 -172 -113 -340 -186 -518 -224
-62 -14 -126 -18 -262 -18 -258 1 -410 34 -670 145 -151 65 -246 58 -295 -23
-25 -40 -25 -80 -1 -133 64 -141 276 -257 556 -303 344 -56 734 32 1050 239
159 105 325 259 339 315 14 54 -36 90 -94 68z"/>
<path d="M1294 2001 c-169 -48 -268 -157 -268 -295 1 -73 26 -136 75 -185 53
-53 159 -97 354 -147 194 -50 242 -69 274 -110 31 -39 28 -104 -5 -144 -60
-71 -178 -105 -335 -98 -118 6 -182 26 -266 84 l-52 35 -51 -38 -51 -38 60
-57 c104 -98 248 -148 428 -148 180 1 331 56 421 155 63 69 86 133 80 219 -13
160 -111 229 -446 316 -253 66 -292 87 -292 158 0 171 368 232 545 92 l37 -30
45 32 c25 18 47 37 51 42 8 14 -75 84 -140 117 -32 16 -84 36 -115 44 -80 21
-270 19 -349 -4z"/>
<path d="M2020 1996 c0 -4 103 -161 229 -349 l229 -343 -5 -217 -6 -217 101 0
102 0 0 219 0 219 231 332 c127 182 229 333 228 335 -2 1 -52 4 -111 6 l-108
4 -168 -242 -169 -243 -163 245 -163 245 -37 0 c-20 0 -71 3 -113 6 -43 4 -77
4 -77 0z"/>
<path d="M3216 1424 c-4 -306 -5 -558 -4 -560 2 -2 159 -4 348 -6 413 -4 417
-3 517 97 67 67 93 127 93 215 0 91 -26 149 -96 218 l-65 64 24 18 c12 10 36
42 52 72 26 46 30 63 30 133 0 89 -14 126 -70 192 -46 53 -118 91 -201 103
-38 5 -193 10 -345 10 l-276 0 -7 -556z m557 437 c49 -12 98 -45 128 -89 18
-27 24 -48 24 -91 0 -69 -24 -114 -84 -156 l-43 -30 -191 0 -192 0 -3 188 -2
187 162 0 c90 0 180 -4 201 -9z m97 -513 c54 -31 84 -70 100 -128 29 -108 -44
-225 -157 -251 -45 -10 -204 -12 -320 -2 l-83 6 0 206 0 206 207 -5 c203 -5
209 -6 253 -32z"/>
<path d="M4255 1416 c-4 -306 -4 -560 0 -564 3 -4 200 -9 436 -11 l429 -3 0
56 0 56 -335 0 -335 0 0 201 0 201 338 -3 337 -4 3 51 3 51 -98 6 c-54 4 -207
7 -340 7 l-243 0 0 200 0 200 340 -7 340 -6 0 56 0 57 -133 0 c-74 0 -269 3
-434 7 l-300 6 -8 -557z"/>
<path d="M5245 1948 c-3 -7 -4 -260 -3 -563 l3 -550 93 -3 92 -3 0 231 0 230
90 0 c98 0 166 -19 223 -63 18 -13 88 -108 155 -209 l123 -185 46 -7 c55 -7
183 -8 183 -1 0 12 -265 402 -293 432 -28 30 -29 33 -11 39 130 46 205 121
239 239 50 172 -64 356 -250 403 -22 6 -185 13 -363 17 -261 5 -323 4 -327 -7z
m611 -124 c50 -18 111 -74 130 -120 33 -80 10 -186 -53 -246 -59 -57 -82 -61
-335 -59 l-168 1 0 118 c0 66 3 166 6 224 l7 105 186 -4 c129 -3 199 -9 227
-19z"/>
</g>
</svg>
