<?xml version="1.0" encoding="UTF-8" standalone="no"?>
<svg
   xmlns:dc="http://purl.org/dc/elements/1.1/"
   xmlns:cc="http://creativecommons.org/ns#"
   xmlns:rdf="http://www.w3.org/1999/02/22-rdf-syntax-ns#"
   xmlns:svg="http://www.w3.org/2000/svg"
   xmlns="http://www.w3.org/2000/svg"
   xmlns:sodipodi="http://sodipodi.sourceforge.net/DTD/sodipodi-0.dtd"
   xmlns:inkscape="http://www.inkscape.org/namespaces/inkscape"
   sodipodi:docname="Discord-Black.svg"
   inkscape:version="1.0 (4035a4f, 2020-05-01)"
   id="svg8"
   version="1.1"
   viewBox="0 0 3.7042594 2.91045"
   height="2.91045mm"
   width="3.7042594mm">
  <defs
     id="defs2" />
  <sodipodi:namedview
     inkscape:window-maximized="0"
     inkscape:window-y="85"
     inkscape:window-x="346"
     inkscape:window-height="855"
     inkscape:window-width="1252"
     showgrid="false"
     inkscape:document-rotation="0"
     inkscape:current-layer="layer1"
     inkscape:document-units="mm"
     inkscape:cy="11.030169"
     inkscape:cx="6.6761264"
     inkscape:zoom="17.059692"
     inkscape:pageshadow="2"
     inkscape:pageopacity="0.0"
     borderopacity="1.0"
     bordercolor="#666666"
     pagecolor="#ffffff"
     id="base" />
  <metadata
     id="metadata5">
    <rdf:RDF>
      <cc:Work
         rdf:about="">
        <dc:format>image/svg+xml</dc:format>
        <dc:type
           rdf:resource="http://purl.org/dc/dcmitype/StillImage" />
        <dc:title></dc:title>
      </cc:Work>
    </rdf:RDF>
  </metadata>
  <g
     transform="translate(-66.634529,-175.3982)"
     id="layer1"
     inkscape:groupmode="layer"
     inkscape:label="Layer 1">
    <path
       id="path861"
       d="m 67.442298,178.26419 c -0.2438,-0.0908 -0.45909,-0.2034 -0.67979,-0.35549 l -0.1125,-0.0775 -0.008,-0.0763 c -0.012,-0.11508 -0.009,-0.4491 0.005,-0.58414 0.0533,-0.51183 0.21042,-0.97356 0.48353,-1.42094 l 0.0652,-0.10677 0.0985,-0.0437 c 0.13523,-0.06 0.34643,-0.1289 0.518,-0.16897 0.16612,-0.0387 0.14847,-0.0462 0.21166,0.0885 l 0.0391,0.0834 0.0844,-0.009 c 0.10889,-0.0122 0.55421,-0.0122 0.67256,-5e-5 l 0.0913,0.009 0.0283,-0.0663 c 0.0156,-0.0364 0.0379,-0.0823 0.0496,-0.10193 l 0.0213,-0.0358 0.12392,0.0271 c 0.17101,0.0373 0.32525,0.086 0.49576,0.1564 l 0.14471,0.0598 0.0757,0.12463 c 0.35089,0.57737 0.51935,1.23133 0.48351,1.87689 -0.005,0.0813 -0.009,0.15659 -0.009,0.16718 -0.002,0.0387 -0.34942,0.25845 -0.56686,0.35835 -0.12147,0.0557 -0.34193,0.1401 -0.36638,0.1401 -0.0257,0 -0.2139,-0.31421 -0.19772,-0.33005 0.005,-0.005 0.0417,-0.0229 0.0812,-0.0397 0.0912,-0.0387 0.20977,-0.10619 0.20977,-0.11931 0,-0.005 -0.0145,-0.0206 -0.0321,-0.0336 l -0.0321,-0.0236 -0.0535,0.0237 c -0.21594,0.0956 -0.47514,0.16147 -0.72157,0.18322 -0.32841,0.029 -0.71685,-0.0395 -1.04256,-0.18374 -0.0539,-0.0239 -0.055,-0.0239 -0.0828,-0.002 -0.0155,0.012 -0.0282,0.0289 -0.0282,0.0375 0,0.0159 0.12475,0.0862 0.23569,0.1329 l 0.059,0.0248 -0.0468,0.0883 c -0.0674,0.12719 -0.14591,0.24192 -0.16512,0.2413 -0.009,-2.9e-4 -0.0687,-0.02 -0.13249,-0.0437 z m 0.53678,-0.90153 c 0.0784,-0.0302 0.15012,-0.10192 0.1899,-0.18971 0.0253,-0.0557 0.0294,-0.0799 0.0295,-0.1729 1e-4,-0.0953 -0.004,-0.11572 -0.0306,-0.17254 -0.0874,-0.18339 -0.26883,-0.25778 -0.43024,-0.17639 -0.11707,0.0591 -0.18568,0.17322 -0.19366,0.32232 -0.0101,0.18945 0.0792,0.33894 0.23731,0.39705 0.0608,0.0224 0.12622,0.0198 0.1978,-0.008 z m 1.21852,0.006 c 0.0816,-0.0249 0.17445,-0.12043 0.2093,-0.21526 0.0722,-0.19639 -0.0104,-0.43093 -0.17847,-0.50669 -0.16487,-0.0743 -0.34179,0.004 -0.42457,0.18818 -0.026,0.0578 -0.0307,0.0831 -0.0306,0.16499 1.3e-4,0.12726 0.0364,0.21426 0.12335,0.29619 0.0909,0.0856 0.18461,0.1082 0.30099,0.0726 z"
       style="fill:#000000;stroke-width:0.0112081" />
  </g>
</svg>
